{
  "accessors": [
    {
      "bufferView": 2,
      "componentType": 5126,
      "count": 2375,
      "max": [
        33.700008392333984,
        11.216668128967285,
        107.55001068115234
      ],
      "min": [
        -33.700008392333984,
        -25.383331298828125,
        3.9999980926513672
      ],
      "type": "VEC3"
    },
    {
      "bufferView": 2,
      "byteOffset": 28500,
      "componentType": 5126,
      "count": 2375,
      "max": [
        1,
        -0,
        1
      ],
      "min": [
        -1,
        -1,
        -1
      ],
      "type": "VEC3"
    },
    {
      "bufferView": 3,
      "componentType": 5126,
      "count": 2375,
      "max": [
        1,
        1,
        1,
        1
      ],
      "min": [
        -1,
        -1,
        -1,
        -1
      ],
      "type": "VEC4"
    },
    {
      "bufferView": 1,
      "componentType": 5126,
      "count": 2375,
      "max": [
        0.99829697608947754,
        0.96598899364471436
      ],
      "min": [
        0.21041099727153778,
        0.0016990000149235129
      ],
      "type": "VEC2"
    },
    {
      "bufferView": 0,
      "componentType": 5125,
      "count": 5376,
      "max": [
        2374
      ],
      "min": [
        0
      ],
      "type": "SCALAR"
    },
    {
      "bufferView": 2,
      "byteOffset": 57000,
      "componentType": 5126,
      "count": 35603,
      "max": [
        36.199287414550781,
        11.216668128967285,
        123.20000457763672
      ],
      "min": [
        -36.199287414550781,
        -30.282609939575195,
        0
      ],
      "type": "VEC3"
    },
    {
      "bufferView": 2,
      "byteOffset": 484236,
      "componentType": 5126,
      "count": 35603,
      "max": [
        1,
        1,
        1
      ],
      "min": [
        -1,
        -1,
        -1
      ],
      "type": "VEC3"
    },
    {
      "bufferView": 3,
      "byteOffset": 38000,
      "componentType": 5126,
      "count": 35603,
      "max": [
        1,
        1,
        1,
        1
      ],
      "min": [
        -1,
        -1,
        -1,
        -1
      ],
      "type": "VEC4"
    },
    {
      "bufferView": 1,
      "byteOffset": 19000,
      "componentType": 5126,
      "count": 35603,
      "max": [
        0.99510198831558228,
        0.99830198287963867
      ],
      "min": [
        0.001702000037766993,
        0.0017010000301524997
      ],
      "type": "VEC2"
    },
    {
      "bufferView": 0,
      "byteOffset": 21504,
      "componentType": 5125,
      "count": 185178,
      "max": [
        35602
      ],
      "min": [
        0
      ],
      "type": "SCALAR"
    },
    {
      "bufferView": 2,
      "byteOffset": 911472,
      "componentType": 5126,
      "count": 212,
      "max": [
        1.299994945526123,
        11.494691848754883,
        120.90000915527344
      ],
      "min": [
        -1.3000030517578125,
        4.9946908950805664,
        117.50000762939453
      ],
      "type": "VEC3"
    },
    {
      "bufferView": 2,
      "byteOffset": 914016,
      "componentType": 5126,
      "count": 212,
      "max": [
        1,
        1,
        1
      ],
      "min": [
        -1,
        -1,
        -1
      ],
      "type": "VEC3"
    },
    {
      "bufferView": 0,
      "byteOffset": 762216,
      "componentType": 5125,
      "count": 648,
      "max": [
        211
      ],
      "min": [
        0
      ],
      "type": "SCALAR"
    }
  ],
  "asset": {
    "extras": {
      "author": "Interiors3D (https://sketchfab.com/Interiors3D)",
      "license": "CC-BY-4.0 (http://creativecommons.org/licenses/by/4.0/)",
      "source": "https://sketchfab.com/3d-models/pbai00-ac5df73de2c54239833643423a152592",
      "title": "PBAI00"
    },
    "generator": "Sketchfab-8.85.0",
    "version": "2.0"
  },
  "bufferViews": [
    {
      "buffer": 0,
      "byteLength": 764808,
      "byteOffset": 0,
      "name": "floatBufferViews",
      "target": 34963
    },
    {
      "buffer": 0,
      "byteLength": 303824,
      "byteOffset": 764808,
      "byteStride": 8,
      "name": "floatBufferViews",
      "target": 34962
    },
    {
      "buffer": 0,
      "byteLength": 916560,
      "byteOffset": 1068632,
      "byteStride": 12,
      "name": "floatBufferViews",
      "target": 34962
    },
    {
      "buffer": 0,
      "byteLength": 607648,
      "byteOffset": 1985192,
      "byteStride": 16,
      "name": "floatBufferViews",
      "target": 34962
    }
  ],
  "buffers": [
    {
      "byteLength": 2592840,
      "uri": "scene.bin"
    }
  ],
  "images": [
    {
      "uri": "textures/Harmonie_baseColor.jpeg"
    },
    {
      "uri": "textures/Harmonie_metallicRoughness.png"
    },
    {
      "uri": "textures/Harmonie_normal.png"
    }
  ],
  "materials": [
    {
      "doubleSided": true,
      "name": "Harmonie",
      "normalTexture": {
        "index": 2,
        "scale": 1,
        "texCoord": 0
      },
      "pbrMetallicRoughness": {
        "baseColorFactor": [
          0.90000000000000002,
          0.90000000000000002,
          0.90000000000000002,
          1
        ],
        "baseColorTexture": {
          "index": 0,
          "texCoord": 0
        },
        "metallicFactor": 0,
        "metallicRoughnessTexture": {
          "index": 1,
          "texCoord": 0
        },
        "roughnessFactor": 1
      }
    },
    {
      "doubleSided": true,
      "emissiveFactor": [
        0,
        0,
        0
      ],
      "name": "metal",
      "pbrMetallicRoughness": {
        "baseColorFactor": [
          0.26031799999999999,
          0.25351200000000002,
          0.28997499999999998,
          1
        ],
        "metallicFactor": 0,
        "roughnessFactor": 0.77100121745190964
      }
    }
  ],
  "meshes": [
    {
      "primitives": [
        {
          "attributes": {
            "NORMAL": 1,
            "POSITION": 0,
            "TANGENT": 2,
            "TEXCOORD_0": 3
          },
          "indices": 4,
          "material": 0,
          "mode": 4
        }
      ]
    },
    {
      "primitives": [
        {
          "attributes": {
            "NORMAL": 6,
            "POSITION": 5,
            "TANGENT": 7,
            "TEXCOORD_0": 8
          },
          "indices": 9,
          "material": 0,
          "mode": 4
        }
      ]
    },
    {
      "primitives": [
        {
          "attributes": {
            "NORMAL": 11,
            "POSITION": 10
          },
          "indices": 12,
          "material": 1,
          "mode": 4
        }
      ]
    }
  ],
  "nodes": [
    {
      "children": [
        1
      ],
      "name": "RootNode (gltf orientation matrix)",
      "rotation": [
        -0.70710678118654746,
        -0,
        -0,
        0.70710678118654757
      ]
    },
    {
      "children": [
        2
      ],
      "name": "RootNode (model correction matrix)"
    },
    {
      "children": [
        3,
        4,
        5
      ],
      "name": "W25 - PBAI00 - Sketchfab - mesh.obj.cleaner.materialmerger.gles"
    },
    {
      "mesh": 0,
      "name": ""
    },
    {
      "mesh": 1,
      "name": ""
    },
    {
      "mesh": 2,
      "name": ""
    }
  ],
  "samplers": [
    {
      "magFilter": 9729,
      "minFilter": 9987,
      "wrapS": 10497,
      "wrapT": 10497
    }
  ],
  "scene": 0,
  "scenes": [
    {
      "name": "OSG_Scene",
      "nodes": [
        0
      ]
    }
  ],
  "textures": [
    {
      "sampler": 0,
      "source": 0
    },
    {
      "sampler": 0,
      "source": 1
    },
    {
      "sampler": 0,
      "source": 2
    }
  ]
}

